<svg width="22" height="21" viewBox="0 0 22 21" fill="none" xmlns="http://www.w3.org/2000/svg">
<path d="M7.35847 16.9092C7.35847 16.996 7.25645 17.0655 7.12782 17.0655C6.98145 17.0785 6.87944 17.009 6.87944 16.9092C6.87944 16.8223 6.98145 16.7528 7.11008 16.7528C7.24314 16.7398 7.35847 16.8093 7.35847 16.9092ZM5.97903 16.7138C5.94798 16.8006 6.03669 16.9005 6.16976 16.9265C6.28508 16.97 6.41815 16.9265 6.44476 16.8397C6.47137 16.7528 6.3871 16.653 6.25403 16.6139C6.13871 16.5835 6.01008 16.6269 5.97903 16.7138ZM7.93952 16.6399C7.81089 16.6703 7.72218 16.7528 7.73548 16.8527C7.74879 16.9396 7.86411 16.996 7.99718 16.9656C8.12581 16.9352 8.21452 16.8527 8.20121 16.7659C8.1879 16.6834 8.06814 16.6269 7.93952 16.6399ZM10.8581 0C4.70605 0 0 4.57251 0 10.5954C0 15.4111 3.09597 19.532 7.51815 20.9823C8.08589 21.0822 8.28548 20.7391 8.28548 20.4569C8.28548 20.1877 8.27218 18.7026 8.27218 17.7907C8.27218 17.7907 5.16734 18.442 4.51532 16.4966C4.51532 16.4966 4.00968 15.233 3.28226 14.9073C3.28226 14.9073 2.26653 14.2256 3.35323 14.2386C3.35323 14.2386 4.45766 14.3255 5.06532 15.3589C6.03669 17.0351 7.66452 16.5531 8.29879 16.2665C8.40081 15.5717 8.68911 15.0897 9.00847 14.8031C6.52903 14.5339 4.02742 14.1822 4.02742 10.0048C4.02742 8.81066 4.36452 8.21141 5.07419 7.44716C4.95887 7.1649 4.58185 6.00115 5.18952 4.49869C6.11653 4.21644 8.25 5.67113 8.25 5.67113C9.1371 5.42796 10.0907 5.30203 11.0355 5.30203C11.9802 5.30203 12.9339 5.42796 13.821 5.67113C13.821 5.67113 15.9544 4.21209 16.8815 4.49869C17.4891 6.00549 17.1121 7.1649 16.9968 7.44716C17.7065 8.21575 18.1411 8.815 18.1411 10.0048C18.1411 14.1952 15.5286 14.5296 13.0492 14.8031C13.4573 15.1462 13.8032 15.7975 13.8032 16.818C13.8032 18.2814 13.7899 20.0921 13.7899 20.4482C13.7899 20.7304 13.994 21.0735 14.5573 20.9736C18.9927 19.532 22 15.4111 22 10.5954C22 4.57251 17.0101 0 10.8581 0ZM4.31129 14.9768C4.25363 15.0202 4.26694 15.1201 4.34234 15.2026C4.41331 15.2721 4.51532 15.3025 4.57298 15.246C4.63064 15.2026 4.61734 15.1027 4.54194 15.0202C4.47097 14.9508 4.36895 14.9204 4.31129 14.9768ZM3.83226 14.6251C3.80121 14.6815 3.84556 14.751 3.93427 14.7944C4.00524 14.8379 4.09395 14.8248 4.125 14.764C4.15605 14.7076 4.11169 14.6381 4.02298 14.5947C3.93427 14.5686 3.86331 14.5817 3.83226 14.6251ZM5.26935 16.171C5.19839 16.2274 5.225 16.3577 5.32702 16.4402C5.42903 16.5401 5.55766 16.5531 5.61532 16.4836C5.67298 16.4272 5.64637 16.2969 5.55766 16.2144C5.46008 16.1145 5.32702 16.1015 5.26935 16.171ZM4.76371 15.5326C4.69274 15.5761 4.69274 15.689 4.76371 15.7888C4.83468 15.8887 4.95444 15.9321 5.0121 15.8887C5.08306 15.8323 5.08306 15.7194 5.0121 15.6195C4.95 15.5196 4.83468 15.4762 4.76371 15.5326Z" fill="#20123A"/>
</svg>
