<svg width="93" height="91" viewBox="0 0 93 91" fill="none" xmlns="http://www.w3.org/2000/svg">
<rect x="2" width="91" height="91" rx="45.5" fill="white" fill-opacity="0.1"/>
<path d="M32.4791 43.6828C32.7697 43.8766 33.1573 43.9735 33.4479 44.0704C33.5448 44.0704 33.6417 44.0704 33.7386 44.0704H33.8355C33.9324 44.0704 34.1261 44.0704 34.223 43.9735C34.9012 43.8766 35.3856 43.4891 35.7732 42.9077L42.1676 32.9286L46.915 36.0289C48.0776 36.804 49.6278 36.4164 50.306 35.2538L57.0879 24.6933L58.4443 25.5653C58.9287 25.856 59.6069 25.9528 60.1882 25.5653C60.6727 25.2747 60.9633 24.6933 60.9633 24.0151L60.382 17.3301C60.382 16.8456 60.0914 16.3612 59.6069 16.0706C59.2194 15.7799 58.6381 15.7799 58.1537 15.8768L51.8561 18.1052C51.2748 18.2989 50.8873 18.7833 50.7904 19.4615C50.6935 20.0429 50.9842 20.721 51.5655 21.0117L52.9219 21.8837L47.3994 30.4096L42.652 27.3092C42.1676 27.0186 41.5863 26.8248 41.005 26.9217C40.3268 27.0186 39.6486 27.4061 39.2611 27.9874L31.5102 40.0012C31.0258 41.4545 31.3165 43.0046 32.4791 43.6828Z" fill="url(#paint0_linear)"/>
<path d="M90.8039 48.4303C88.2849 42.5203 79.2746 43.3923 75.6898 44.458C74.1397 44.9425 73.074 45.8144 72.1051 46.8802C71.1362 47.9459 61.6415 57.7313 61.6415 57.7313L50.4028 61.9942C47.69 63.06 46.2368 66.0634 47.3025 68.8731C48.0776 71.0046 50.1122 72.2641 52.2436 72.2641C52.825 72.2641 53.5032 72.1672 54.0845 71.8765L66.4858 67.1291C67.2608 66.8385 67.8422 66.451 68.4235 65.8696L69.2954 64.9008C69.3923 71.1983 70.2643 81.9526 70.3612 82.5339C70.458 83.5027 70.9425 84.084 72.1051 84.084C73.2677 84.084 88.7693 84.084 91.1915 84.084C92.1603 84.084 92.8385 83.309 92.8385 82.3401C93.0323 70.9077 93.5167 54.7278 90.8039 48.4303Z" fill="url(#paint1_linear)"/>
<path d="M79.759 40.97C86.18 40.97 91.3852 35.7647 91.3852 29.3437C91.3852 22.9228 86.18 17.7175 79.759 17.7175C73.338 17.7175 68.1328 22.9228 68.1328 29.3437C68.1328 35.7647 73.338 40.97 79.759 40.97Z" fill="url(#paint2_linear)"/>
<path d="M14.2647 40.97C20.6857 40.97 25.8909 35.7647 25.8909 29.3437C25.8909 22.9228 20.6857 17.7175 14.2647 17.7175C7.84369 17.7175 2.63846 22.9228 2.63846 29.3437C2.63846 35.7647 7.84369 40.97 14.2647 40.97Z" fill="url(#paint3_linear)"/>
<path d="M50.2091 51.337C48.8527 48.7211 45.6555 47.6553 43.0396 49.0117L33.1573 54.0498C33.1573 54.0498 27.6348 50.2712 25.8909 48.9148C24.7283 48.1398 21.5311 45.5239 18.3339 44.3612C14.846 43.1986 5.73879 42.4235 3.21978 48.3335C0.506993 54.7279 0.991419 70.9078 1.0883 82.4371C1.0883 83.406 1.7665 84.181 2.73535 84.181C5.15748 84.181 20.6591 84.181 21.8217 84.181C22.9843 84.181 23.3719 83.5028 23.5657 82.6309C23.6625 82.0496 24.7283 68.9701 24.7283 63.2538C24.7283 62.6725 24.7283 61.9943 24.7283 61.2193L29.7663 64.6102C30.6383 65.1915 31.704 65.4822 32.7697 65.4822C33.6417 65.4822 34.4168 65.2884 35.1919 64.9009L47.8838 58.4096C50.4997 57.1501 51.4686 53.9529 50.2091 51.337Z" fill="url(#paint4_linear)"/>
<defs>
<linearGradient id="paint0_linear" x1="46.1247" y1="15.8188" x2="46.1247" y2="44.0704" gradientUnits="userSpaceOnUse">
<stop stop-color="#E81C7E"/>
<stop offset="0.28125" stop-color="#F84660"/>
<stop offset="1" stop-color="#FFD166"/>
</linearGradient>
<linearGradient id="paint1_linear" x1="69.9757" y1="43.6882" x2="69.9757" y2="84.084" gradientUnits="userSpaceOnUse">
<stop stop-color="#E81C7E"/>
<stop offset="0.28125" stop-color="#F84660"/>
<stop offset="1" stop-color="#FFD166"/>
</linearGradient>
<linearGradient id="paint2_linear" x1="79.759" y1="17.7175" x2="79.759" y2="40.97" gradientUnits="userSpaceOnUse">
<stop stop-color="#E81C7E"/>
<stop offset="0.28125" stop-color="#F84660"/>
<stop offset="1" stop-color="#FFD166"/>
</linearGradient>
<linearGradient id="paint3_linear" x1="14.2647" y1="17.7175" x2="14.2647" y2="40.97" gradientUnits="userSpaceOnUse">
<stop stop-color="#E81C7E"/>
<stop offset="0.28125" stop-color="#F84660"/>
<stop offset="1" stop-color="#FFD166"/>
</linearGradient>
<linearGradient id="paint4_linear" x1="25.8751" y1="43.5488" x2="25.8751" y2="84.181" gradientUnits="userSpaceOnUse">
<stop stop-color="#E81C7E"/>
<stop offset="0.28125" stop-color="#F84660"/>
<stop offset="1" stop-color="#FFD166"/>
</linearGradient>
</defs>
</svg>
