<svg width="102" height="104" viewBox="0 0 102 104" fill="none" xmlns="http://www.w3.org/2000/svg">
<rect y="5" width="100" height="99" rx="49.5" fill="white" fill-opacity="0.1"/>
<path d="M53.0235 55.5002H51.3235C50.8235 55.5002 50.2235 55.3002 49.9235 54.9002C49.5235 54.5002 49.4235 54.0002 49.4235 53.4002C49.5235 52.4002 50.4235 51.7002 51.4235 51.7002H53.4235C54.0235 51.7002 54.5235 52.1002 54.6235 52.7002C54.7235 53.1002 55.0235 53.3002 55.4235 53.3002H57.7235C57.9235 53.3002 58.2235 53.2002 58.3235 53.0002C58.5235 52.8002 58.5235 52.6002 58.5235 52.4002C58.3235 50.0002 56.4235 48.2002 54.1235 47.9002V46.0002C54.1235 45.6002 53.7235 45.2002 53.3235 45.2002H51.0235C50.5235 45.2002 50.2235 45.6002 50.2235 46.0002V48.0002C47.3235 48.6002 45.2235 51.3002 45.5235 54.3002C45.8235 57.2002 48.4235 59.5002 51.5235 59.5002H53.0235C53.5235 59.5002 54.1235 59.7002 54.4235 60.1002C54.8235 60.5002 54.9235 61.0002 54.9235 61.6002C54.8235 62.6002 53.9235 63.3002 52.9235 63.3002H50.9235C50.3235 63.3002 49.8235 62.9002 49.7235 62.3002C49.6235 61.9002 49.3235 61.7002 48.9235 61.7002H46.5235C46.3235 61.7002 46.0235 61.8002 45.9235 62.0002C45.8235 62.2002 45.7235 62.4002 45.7235 62.6002C45.9235 65.0002 47.8235 66.8002 50.1235 67.1002V69.0002C50.1235 69.4002 50.5235 69.8002 50.9235 69.8002H53.2235C53.7235 69.8002 54.0235 69.4002 54.0235 69.0002V67.0002C56.5235 66.4002 58.4235 64.4002 58.7235 61.9002C58.9235 60.2002 58.3235 58.7002 57.2235 57.4002C56.2235 56.2002 54.6235 55.5002 53.0235 55.5002Z" fill="url(#paint0_linear)"/>
<path d="M88.9235 45.7002L64.6234 57.4002C63.6234 57.9002 62.9235 59.1002 63.3235 60.2002C63.7235 61.6002 65.3235 62.3002 66.5235 61.6002L90.9235 49.8002L92.0235 52.1002C92.8235 53.7002 95.0234 53.6002 95.7234 52.0002L98.6235 45.2002C99.1235 44.1002 98.5235 42.8002 97.3235 42.4002L90.1234 40.4002C88.4234 39.9002 87.0234 41.7002 87.7234 43.2002L88.9235 45.7002Z" fill="url(#paint1_linear)"/>
<path d="M99.8235 57.1001H90.9235C90.2235 57.1001 89.7234 57.6001 89.7234 58.3001V90.2001C89.7234 90.9001 90.2235 91.4001 90.9235 91.4001H99.8235C100.523 91.4001 101.023 90.9001 101.023 90.2001V58.3001C101.023 57.7001 100.523 57.1001 99.8235 57.1001Z" fill="url(#paint2_linear)"/>
<path d="M85.4235 63.2998H76.5235C75.8235 63.2998 75.3235 63.7998 75.3235 64.4998V90.1998C75.3235 90.8998 75.8235 91.3998 76.5235 91.3998H85.4235C86.1235 91.3998 86.6235 90.8998 86.6235 90.1998V64.4998C86.6235 63.8998 86.1235 63.2998 85.4235 63.2998Z" fill="url(#paint3_linear)"/>
<path d="M71.0235 69.5H62.1235C61.4235 69.5 60.9235 70 60.9235 70.7V90.2C60.9235 90.9 61.4235 91.4 62.1235 91.4H71.0235C71.7235 91.4 72.2235 90.9 72.2235 90.2V70.7C72.2235 70.1 71.6235 69.5 71.0235 69.5Z" fill="url(#paint4_linear)"/>
<path d="M56.6235 75.7002H47.7235C47.0235 75.7002 46.5235 76.2002 46.5235 76.9002V90.2002C46.5235 90.9002 47.0235 91.4002 47.7235 91.4002H56.6235C57.3235 91.4002 57.8235 90.9002 57.8235 90.2002V76.9002C57.8235 76.2002 57.2235 75.7002 56.6235 75.7002Z" fill="url(#paint5_linear)"/>
<path d="M63.3235 37.9L65.6235 31.9C66.1235 30.6 65.1235 29.2 63.7235 29.2H35.7235L29.6235 44.4L28.3235 33.7H29.2235C29.7235 33.7 30.1235 33.3 30.1235 32.8V29.9C30.1235 29.4 29.7235 29 29.2235 29H24.5235C24.0235 29 23.6235 29.4 23.6235 29.9V32.7C23.6235 33.2 24.0235 33.6 24.5235 33.6H25.4235L24.1235 44.3L18.2235 29.5C12.6235 30.7 8.32345 35.3 7.72345 41L6.02345 57.3C5.82345 58.9 6.92345 60.3 8.52345 60.7C10.3235 61.1 12.6235 61.4 15.0235 61.6L16.5235 87.4C16.6235 89.6 18.4235 91.3 20.6235 91.3H33.1235C35.3235 91.3 37.1235 89.6 37.2235 87.4L39.3235 43.1C39.3235 40.9 41.1235 39.1 43.4235 39.1H61.5235C62.3235 39.1 63.0235 38.6 63.3235 37.9Z" fill="url(#paint6_linear)"/>
<path d="M26.8235 26.4C34.1136 26.4 40.0235 20.4902 40.0235 13.2C40.0235 5.90984 34.1136 0 26.8235 0C19.5333 0 13.6235 5.90984 13.6235 13.2C13.6235 20.4902 19.5333 26.4 26.8235 26.4Z" fill="url(#paint7_linear)"/>
<defs>
<linearGradient id="paint0_linear" x1="52.1283" y1="45.2002" x2="52.1283" y2="69.8002" gradientUnits="userSpaceOnUse">
<stop stop-color="#E81C7E"/>
<stop offset="0.28125" stop-color="#F84660"/>
<stop offset="1" stop-color="#FFD166"/>
</linearGradient>
<linearGradient id="paint1_linear" x1="81.0046" y1="40.3149" x2="81.0046" y2="61.8748" gradientUnits="userSpaceOnUse">
<stop stop-color="#E81C7E"/>
<stop offset="0.28125" stop-color="#F84660"/>
<stop offset="1" stop-color="#FFD166"/>
</linearGradient>
<linearGradient id="paint2_linear" x1="95.3735" y1="57.1001" x2="95.3735" y2="91.4001" gradientUnits="userSpaceOnUse">
<stop stop-color="#E81C7E"/>
<stop offset="0.28125" stop-color="#F84660"/>
<stop offset="1" stop-color="#FFD166"/>
</linearGradient>
<linearGradient id="paint3_linear" x1="80.9735" y1="63.2998" x2="80.9735" y2="91.3998" gradientUnits="userSpaceOnUse">
<stop stop-color="#E81C7E"/>
<stop offset="0.28125" stop-color="#F84660"/>
<stop offset="1" stop-color="#FFD166"/>
</linearGradient>
<linearGradient id="paint4_linear" x1="66.5735" y1="69.5" x2="66.5735" y2="91.4" gradientUnits="userSpaceOnUse">
<stop stop-color="#E81C7E"/>
<stop offset="0.28125" stop-color="#F84660"/>
<stop offset="1" stop-color="#FFD166"/>
</linearGradient>
<linearGradient id="paint5_linear" x1="52.1735" y1="75.7002" x2="52.1735" y2="91.4002" gradientUnits="userSpaceOnUse">
<stop stop-color="#E81C7E"/>
<stop offset="0.28125" stop-color="#F84660"/>
<stop offset="1" stop-color="#FFD166"/>
</linearGradient>
<linearGradient id="paint6_linear" x1="35.877" y1="29" x2="35.877" y2="91.3" gradientUnits="userSpaceOnUse">
<stop stop-color="#E81C7E"/>
<stop offset="0.28125" stop-color="#F84660"/>
<stop offset="1" stop-color="#FFD166"/>
</linearGradient>
<linearGradient id="paint7_linear" x1="26.8235" y1="0" x2="26.8235" y2="26.4" gradientUnits="userSpaceOnUse">
<stop stop-color="#E81C7E"/>
<stop offset="0.28125" stop-color="#F84660"/>
<stop offset="1" stop-color="#FFD166"/>
</linearGradient>
</defs>
</svg>
