<svg width="90" height="90" viewBox="0 0 90 90" fill="none" xmlns="http://www.w3.org/2000/svg">
<rect y="4" width="86" height="86" rx="43" fill="white" fill-opacity="0.1"/>
<path d="M26.2603 78.0898H13.61C12.9794 78.0898 12.4678 78.6009 12.4678 79.232V88.8572C12.4678 89.4885 12.9792 89.9997 13.61 89.9997H26.2603C26.8913 89.9997 27.4028 89.4887 27.4028 88.8572V79.232C27.4028 78.601 26.8913 78.0898 26.2603 78.0898Z" fill="url(#paint0_linear)"/>
<path d="M51.1717 72.989H38.5215C37.8909 72.989 37.3794 73.5007 37.3794 74.1315V88.8576C37.3794 89.4889 37.8908 90.0001 38.5215 90.0001H51.1717C51.8026 90.0001 52.3142 89.4891 52.3142 88.8576V74.1315C52.314 73.5007 51.8026 72.989 51.1717 72.989Z" fill="url(#paint1_linear)"/>
<path d="M76.0831 59.3381H63.4327C62.8021 59.3381 62.2906 59.8499 62.2906 60.4806V88.8574C62.2906 89.4888 62.802 90 63.4327 90H76.0831C76.714 90 77.2256 89.489 77.2256 88.8574V60.4806C77.2256 59.8499 76.7142 59.3381 76.0831 59.3381Z" fill="url(#paint2_linear)"/>
<path d="M30.0296 26.801C30.0296 28.0634 31.8343 29.072 32.1454 30.2361C32.4674 31.4408 31.418 33.2148 32.0285 34.2691C32.6471 35.3393 34.7136 35.3132 35.5818 36.1817C36.4503 37.0499 36.4241 39.1164 37.4945 39.7354C38.5491 40.3455 40.3226 39.2961 41.5274 39.6185C42.6919 39.9293 43.7001 41.7347 44.9626 41.7347C46.2249 41.7347 47.2331 39.9293 48.3976 39.6185C49.6022 39.2961 51.3763 40.3455 52.4305 39.7356C53.5004 39.1162 53.475 37.0497 54.3432 36.1816C55.2113 35.3134 57.2778 35.3393 57.8968 34.2693C58.507 33.2146 57.4576 31.4408 57.78 30.2359C58.0911 29.0719 59.8957 28.0633 59.8957 26.8008C59.8957 25.5387 58.0911 24.5301 57.78 23.3656C57.4576 22.1613 58.507 20.3873 57.8968 19.333C57.2778 18.2628 55.2117 18.2885 54.3435 17.4204C53.475 16.5522 53.5009 14.4853 52.4309 13.8667C51.3763 13.2562 49.6024 14.3056 48.3976 13.9836C47.2335 13.6721 46.2249 11.8674 44.9626 11.8674C43.7001 11.8674 42.6919 13.6721 41.5274 13.9836C40.3231 14.3056 38.5491 13.2562 37.4945 13.8665C36.4246 14.4855 36.4503 16.552 35.5822 17.4202C34.714 18.2887 32.6475 18.2624 32.0285 19.3328C31.4184 20.3871 32.4674 22.1609 32.1454 23.3658C31.8343 24.5302 30.0296 25.5387 30.0296 26.801ZM40.6709 23.9683C40.6709 22.1425 42.0031 20.8707 44.1481 20.5366V18.344H46.1991V20.5085C47.6595 20.6993 48.7183 21.3582 49.5923 22.24L48.0605 24.0134C47.0635 23.312 46.287 22.9432 45.1164 22.9432C44.1654 22.9432 43.6381 23.3042 43.6381 23.9261C43.6381 25.4408 49.8171 25.2525 49.8171 29.1083C49.8171 30.8776 48.5423 32.2914 46.1993 32.6857V35.2579H44.1482V32.7571C42.7654 32.6031 41.1746 32.004 40.1082 31.0827L41.4598 28.984C42.7877 29.8121 43.9429 30.3019 45.2735 30.3019C46.307 30.3019 46.8495 29.9373 46.8495 29.325C46.8495 27.5446 40.6709 27.8596 40.6709 23.9683Z" fill="url(#paint3_linear)"/>
<path d="M46.0835 0H43.7914V6.00958H46.0835V0Z" fill="url(#paint4_linear)"/>
<path d="M56.1936 2.61862L54.0811 1.72876L51.7479 7.26769L53.8605 8.15755L56.1936 2.61862Z" fill="url(#paint5_linear)"/>
<path d="M38.1762 7.26731L35.8442 1.72778L33.7314 2.61719L36.0634 8.15672L38.1762 7.26731Z" fill="url(#paint6_linear)"/>
<path d="M89.1701 37.3043L84.6154 35.3386C84.1513 35.1389 83.6135 35.2376 83.2504 35.5888C82.8872 35.9402 82.7718 36.4755 82.957 36.945L83.8938 39.3226L83.8931 39.323L84.735 41.4567L85.6856 43.8688C85.8739 44.347 86.3354 44.6608 86.8486 44.6608C86.8531 44.6608 86.8582 44.6608 86.8631 44.6608C87.3815 44.6548 87.8427 44.3296 88.0221 43.8428L89.848 38.8845C90.0776 38.2616 89.7795 37.5676 89.1701 37.3043Z" fill="url(#paint7_linear)"/>
<path d="M73.4945 43.6657C72.6649 42.4986 71.2981 41.7362 69.76 41.7362C67.226 41.7362 65.1671 43.7953 65.1671 46.3248C65.1671 46.5332 65.1798 46.7417 65.2131 46.946L48.571 53.5392C47.7374 52.3808 46.3787 51.6262 44.8453 51.6262C42.3151 51.6262 40.2564 53.6853 40.2564 56.2148C40.2564 56.419 40.2691 56.6192 40.2981 56.8196L23.6935 63.4C22.8599 62.2165 21.4847 61.4457 19.9345 61.4457C17.4043 61.4457 15.3456 63.5044 15.3456 66.0342C15.3456 66.2551 15.3623 66.4762 15.3954 66.6886L0 72.7902L0.841892 74.9239L16.2792 68.8056C17.1169 69.9099 18.4424 70.6269 19.9345 70.6269C22.4682 70.6269 24.5274 68.5639 24.5274 66.034C24.5274 65.867 24.5189 65.705 24.498 65.5464L41.1568 58.9446C41.9946 60.0743 43.3366 60.8076 44.8453 60.8076C47.3788 60.8076 49.438 58.7486 49.438 56.2144C49.438 56.0314 49.4254 55.8523 49.4047 55.6771L66.0796 49.0668C66.9174 50.1881 68.2552 50.913 69.7598 50.913C72.2896 50.913 74.3487 48.8546 74.3487 46.3244C74.3487 46.1496 74.3402 45.9743 74.3154 45.8034C74.2601 45.2821 74.1077 44.7916 73.8875 44.3386C74.1077 44.7916 74.2603 45.2821 74.3154 45.8034L82.6172 42.3404L81.7795 40.2063L73.4945 43.6657ZM22.1934 66.4635C21.9934 67.5263 21.0556 68.3347 19.9347 68.3347C19.4304 68.3347 18.9636 68.1723 18.5883 67.8929C18.0128 67.4759 17.6381 66.7968 17.6381 66.034C17.6381 65.955 17.6422 65.8759 17.6504 65.7961C17.7714 64.642 18.7465 63.7378 19.9345 63.7378C20.5049 63.7378 21.0303 63.9502 21.4344 64.2959C21.9263 64.717 22.2349 65.3378 22.2349 66.034C22.2351 66.1801 22.2224 66.3262 22.1934 66.4635ZM47.1124 56.5859C46.9372 57.6776 45.9869 58.5154 44.8453 58.5154C44.3202 58.5154 43.8364 58.3363 43.4491 58.0361C42.903 57.6195 42.5487 56.9566 42.5487 56.2144C42.5487 56.1145 42.5569 56.0143 42.5695 55.9188C42.7154 54.7892 43.678 53.9181 44.8453 53.9181C45.3991 53.9181 45.9038 54.1142 46.3037 54.4391C46.8165 54.8599 47.1456 55.5022 47.1456 56.2144C47.1458 56.34 47.1373 56.465 47.1124 56.5859ZM72.0233 46.7126C71.8399 47.796 70.894 48.6212 69.76 48.6212C69.2432 48.6212 68.7641 48.4507 68.3804 48.1586C67.8223 47.742 67.4595 47.075 67.4595 46.3246C67.4595 46.2329 67.4637 46.1371 67.4762 46.0495C67.6139 44.9121 68.585 44.0283 69.7602 44.0283C70.3186 44.0283 70.8315 44.2284 71.2314 44.562C71.7357 44.9828 72.0568 45.6159 72.0568 46.3246C72.0566 46.4582 72.0441 46.5874 72.0233 46.7126Z" fill="url(#paint8_linear)"/>
<defs>
<linearGradient id="paint0_linear" x1="19.9353" y1="78.0898" x2="19.9353" y2="89.9997" gradientUnits="userSpaceOnUse">
<stop stop-color="#E81C7E"/>
<stop offset="0.28125" stop-color="#F84660"/>
<stop offset="1" stop-color="#FFD166"/>
</linearGradient>
<linearGradient id="paint1_linear" x1="44.8468" y1="72.989" x2="44.8468" y2="90.0001" gradientUnits="userSpaceOnUse">
<stop stop-color="#E81C7E"/>
<stop offset="0.28125" stop-color="#F84660"/>
<stop offset="1" stop-color="#FFD166"/>
</linearGradient>
<linearGradient id="paint2_linear" x1="69.7581" y1="59.3381" x2="69.7581" y2="90" gradientUnits="userSpaceOnUse">
<stop stop-color="#E81C7E"/>
<stop offset="0.28125" stop-color="#F84660"/>
<stop offset="1" stop-color="#FFD166"/>
</linearGradient>
<linearGradient id="paint3_linear" x1="44.9627" y1="11.8674" x2="44.9627" y2="41.7347" gradientUnits="userSpaceOnUse">
<stop stop-color="#E81C7E"/>
<stop offset="0.28125" stop-color="#F84660"/>
<stop offset="1" stop-color="#FFD166"/>
</linearGradient>
<linearGradient id="paint4_linear" x1="44.9375" y1="0" x2="44.9375" y2="6.00958" gradientUnits="userSpaceOnUse">
<stop stop-color="#E81C7E"/>
<stop offset="0.28125" stop-color="#F84660"/>
<stop offset="1" stop-color="#FFD166"/>
</linearGradient>
<linearGradient id="paint5_linear" x1="55.1373" y1="2.17369" x2="52.8042" y2="7.71262" gradientUnits="userSpaceOnUse">
<stop stop-color="#E81C7E"/>
<stop offset="0.28125" stop-color="#F84660"/>
<stop offset="1" stop-color="#FFD166"/>
</linearGradient>
<linearGradient id="paint6_linear" x1="37.0102" y1="4.49755" x2="34.8974" y2="5.38695" gradientUnits="userSpaceOnUse">
<stop stop-color="#E81C7E"/>
<stop offset="0.28125" stop-color="#F84660"/>
<stop offset="1" stop-color="#FFD166"/>
</linearGradient>
<linearGradient id="paint7_linear" x1="86.3975" y1="35.2366" x2="86.3975" y2="44.6608" gradientUnits="userSpaceOnUse">
<stop stop-color="#E81C7E"/>
<stop offset="0.28125" stop-color="#F84660"/>
<stop offset="1" stop-color="#FFD166"/>
</linearGradient>
<linearGradient id="paint8_linear" x1="41.3086" y1="40.2063" x2="41.3086" y2="74.9239" gradientUnits="userSpaceOnUse">
<stop stop-color="#E81C7E"/>
<stop offset="0.28125" stop-color="#F84660"/>
<stop offset="1" stop-color="#FFD166"/>
</linearGradient>
</defs>
</svg>
