<svg width="80" height="82" viewBox="0 0 80 82" fill="none" xmlns="http://www.w3.org/2000/svg">
<rect width="80" height="80" rx="40" fill="white" fill-opacity="0.1"/>
<path d="M35.1663 52.46C33.7763 54.56 32.9263 55.87 32.4063 56.72L29.5863 52.46H35.1663Z" fill="url(#paint0_linear)"/>
<path d="M40.7161 28.03C37.0261 28.03 34.0161 31.04 34.0161 34.73C34.0161 38.42 37.0261 41.43 40.7161 41.43C41.3862 41.43 42.0361 41.33 42.6661 41.14C44.5561 38.29 46.1161 35.95 47.3862 34.02C47.0161 30.66 44.1661 28.03 40.7161 28.03ZM41.5261 38.92V39.08C41.5261 39.58 41.0861 39.96 40.5762 39.88C40.1762 39.8101 39.9061 39.44 39.9061 39.03V38.92C39.0261 38.62 38.3662 37.86 38.1962 36.96C38.1461 36.72 38.3461 36.4901 38.5961 36.4901H39.4262C39.6061 36.4901 39.7562 36.62 39.8162 36.8C39.9661 37.2501 40.4462 37.55 40.9661 37.41C41.2861 37.33 41.5461 37.0601 41.6362 36.7401C41.8061 36.09 41.2961 35.51 40.6661 35.54C40.0861 35.57 39.4962 35.4301 39.0861 35.02C37.3862 33.34 38.2261 31.1101 39.9061 30.54V30.4301C39.9061 30.03 40.1862 29.65 40.5762 29.58C41.0861 29.5001 41.5261 29.89 41.5261 30.38V30.54C42.4061 30.84 43.0662 31.6 43.2361 32.5001C43.2861 32.7401 43.0861 32.97 42.8361 32.97H41.9861C41.8162 32.97 41.6761 32.84 41.6261 32.68C41.4761 32.22 40.9961 31.91 40.4661 32.05C40.1362 32.13 39.8761 32.4 39.7961 32.72C39.6262 33.39 40.1761 33.99 40.8262 33.92C41.3862 33.85 41.9561 34.04 42.3561 34.44C44.0461 36.1201 43.2061 38.36 41.5261 38.92Z" fill="url(#paint1_linear)"/>
<path d="M58.9561 24.3999H55.4161L55.9462 24.7499C60.5562 27.7699 61.8361 33.9799 58.7861 38.5999C57.5161 40.4999 56.0462 42.7099 54.4962 45.0599H58.9561C59.3661 42.8799 61.0961 41.1499 63.2761 40.7399V28.7199C61.0961 28.3099 59.3662 26.5799 58.9561 24.3999ZM22.4761 24.3999C22.0662 26.5799 20.3361 28.3099 18.1561 28.7199V40.7399C20.3361 41.1499 22.0662 42.8799 22.4761 45.0599H40.0662C40.4362 44.4899 40.8061 43.9399 41.1561 43.4099C41.0161 43.4299 40.8661 43.4299 40.7161 43.4299C35.9161 43.4299 32.0161 39.5299 32.0161 34.7299C32.0161 29.9299 35.9161 26.0299 40.7161 26.0299C44.4761 26.0299 47.6761 28.4199 48.8961 31.7599C52.8262 25.8299 53.3361 25.0799 53.8262 24.3999H22.4761V24.3999ZM24.3461 37.7499C22.6762 37.7499 21.3262 36.3999 21.3262 34.7299C21.3262 33.0599 22.6762 31.7099 24.3461 31.7099C26.0161 31.7099 27.3662 33.0599 27.3662 34.7299C27.3662 36.3999 26.0161 37.7499 24.3461 37.7499Z" fill="url(#paint2_linear)"/>
<path d="M66.9162 19H14.5162C13.5362 19 12.7462 19.79 12.7462 20.76V48.6999C12.7462 49.68 13.5362 50.46 14.5162 50.46H36.4862C37.2762 49.27 38.0262 48.1399 38.7362 47.06H21.5662C21.0162 47.06 20.5662 46.61 20.5662 46.06C20.5662 44.18 19.0362 42.65 17.1562 42.65C16.6062 42.65 16.1562 42.2 16.1562 41.65V27.81C16.1562 27.2599 16.6062 26.81 17.1562 26.81C19.0362 26.81 20.5662 25.28 20.5662 23.4C20.5662 22.85 21.0162 22.4 21.5662 22.4H59.8662C60.4162 22.4 60.8662 22.85 60.8662 23.4C60.8662 25.28 62.3962 26.81 64.2762 26.81C64.8262 26.81 65.2762 27.2599 65.2762 27.81V41.65C65.2762 42.1999 64.8262 42.65 64.2762 42.65C62.3962 42.65 60.8662 44.18 60.8662 46.06C60.8662 46.61 60.4162 47.06 59.8662 47.06H53.1662C52.4162 48.18 51.6662 49.3199 50.9062 50.46C70.6862 50.46 64.3762 50.46 66.9162 50.46C67.8962 50.46 68.6862 49.68 68.6862 48.6999V20.7599C68.6862 19.79 67.8962 19 66.9162 19Z" fill="url(#paint3_linear)"/>
<path d="M54.8463 26.4199C54.6043 26.7588 32.0152 60.8111 31.9363 60.9299L31.8563 60.8799C31.0563 60.3499 29.9963 60.5699 29.4763 61.3599L26.2463 66.2199C25.8863 65.8599 25.4963 65.5399 25.0763 65.2499C21.7263 62.9699 17.1463 63.1299 14.1163 65.8099C9.40626 69.9899 10.2463 77.0899 15.2163 80.1899C19.3963 82.7799 24.9063 81.3799 27.6163 77.2899L35.5463 65.3599C36.0663 64.5599 35.8563 63.5099 35.0563 62.9899L34.8763 62.8699C36.065 61.0513 38.4106 60.3817 40.3842 61.2102C40.8305 61.3976 41.3416 61.2594 41.6088 60.8558C46.8085 53.0013 55.084 40.5574 57.1163 37.4999C59.5663 33.7899 58.5162 28.8299 54.8463 26.4199ZM24.2263 75.4099C22.6763 77.7499 19.5162 78.3899 17.1663 76.8399C14.8163 75.2999 14.1663 72.1499 15.7162 69.8099C17.2762 67.4699 20.4363 66.8199 22.7863 68.3699C25.1363 69.9199 25.7863 73.0699 24.2263 75.4099ZM39.0563 58.5399C38.2563 58.5399 37.6163 57.8899 37.6163 57.0999C37.6163 56.2999 38.2563 55.6599 39.0563 55.6599C39.8563 55.6599 40.5063 56.2999 40.5063 57.0999C40.5063 57.8899 39.8563 58.5399 39.0563 58.5399Z" fill="url(#paint4_linear)"/>
<path d="M62.6462 65.8101C59.6262 63.13 55.0462 62.97 51.6963 65.2501C51.2762 65.54 50.8762 65.86 50.5162 66.22L47.2962 61.36C46.7662 60.57 45.7162 60.35 44.9162 60.88L44.8362 60.93L44.3962 60.27C44.0063 60.85 43.6363 61.42 43.2762 61.96C42.8462 62.62 42.1862 63.0601 41.4362 63.22C40.8762 63.78 40.7762 64.67 41.2262 65.36L49.1462 77.29C51.8562 81.38 57.3763 82.78 61.5462 80.19C66.5262 77.09 67.3662 69.99 62.6462 65.8101ZM59.6062 76.84C57.2563 78.39 54.0962 77.7501 52.5462 75.41C50.9862 73.07 51.6363 69.92 53.9862 68.3701C56.3362 66.82 59.4962 67.47 61.0462 69.8101C62.6062 72.15 61.9562 75.3 59.6062 76.84Z" fill="url(#paint5_linear)"/>
<defs>
<linearGradient id="paint0_linear" x1="32.3763" y1="52.46" x2="32.3763" y2="56.72" gradientUnits="userSpaceOnUse">
<stop stop-color="#E81C7E"/>
<stop offset="0.28125" stop-color="#F84660"/>
<stop offset="1" stop-color="#FFD166"/>
</linearGradient>
<linearGradient id="paint1_linear" x1="40.7011" y1="28.03" x2="40.7011" y2="41.43" gradientUnits="userSpaceOnUse">
<stop stop-color="#E81C7E"/>
<stop offset="0.28125" stop-color="#F84660"/>
<stop offset="1" stop-color="#FFD166"/>
</linearGradient>
<linearGradient id="paint2_linear" x1="40.7161" y1="24.3999" x2="40.7161" y2="45.0599" gradientUnits="userSpaceOnUse">
<stop stop-color="#E81C7E"/>
<stop offset="0.28125" stop-color="#F84660"/>
<stop offset="1" stop-color="#FFD166"/>
</linearGradient>
<linearGradient id="paint3_linear" x1="40.7162" y1="19" x2="40.7162" y2="50.46" gradientUnits="userSpaceOnUse">
<stop stop-color="#E81C7E"/>
<stop offset="0.28125" stop-color="#F84660"/>
<stop offset="1" stop-color="#FFD166"/>
</linearGradient>
<linearGradient id="paint4_linear" x1="34.7215" y1="26.4199" x2="34.7215" y2="81.4992" gradientUnits="userSpaceOnUse">
<stop stop-color="#E81C7E"/>
<stop offset="0.28125" stop-color="#F84660"/>
<stop offset="1" stop-color="#FFD166"/>
</linearGradient>
<linearGradient id="paint5_linear" x1="53.3568" y1="60.27" x2="53.3568" y2="81.4993" gradientUnits="userSpaceOnUse">
<stop stop-color="#E81C7E"/>
<stop offset="0.28125" stop-color="#F84660"/>
<stop offset="1" stop-color="#FFD166"/>
</linearGradient>
</defs>
</svg>
