<svg width="102" height="101" viewBox="0 0 102 101" fill="none" xmlns="http://www.w3.org/2000/svg">
<circle cx="51" cy="50.5" r="50.5" fill="url(#paint0_linear)"/>
<path d="M41.9152 23.3077C41.6172 23.3077 41.3222 23.3663 41.0469 23.4803C40.7717 23.5943 40.5216 23.7614 40.3109 23.9721C40.1002 24.1828 39.9331 24.4329 39.8191 24.7081C39.7051 24.9834 39.6465 25.2784 39.6465 25.5764V77.7545C39.6465 78.3562 39.8856 78.9332 40.311 79.3587C40.7365 79.7841 41.3135 80.0231 41.9152 80.0231C42.5168 80.0231 43.0939 79.7841 43.5193 79.3587C43.9448 78.9332 44.1838 78.3562 44.1838 77.7545V25.5764C44.1838 25.2784 44.1252 24.9834 44.0112 24.7081C43.8972 24.4329 43.7301 24.1828 43.5194 23.9721C43.3088 23.7614 43.0586 23.5943 42.7834 23.4803C42.5081 23.3663 42.2131 23.3077 41.9152 23.3077Z" fill="white"/>
<path d="M33.2188 33.4529C32.9209 33.4528 32.6259 33.5115 32.3506 33.6255C32.0753 33.7395 31.8252 33.9066 31.6146 34.1172C31.4039 34.3279 31.2368 34.578 31.1228 34.8533C31.0088 35.1285 30.9501 35.4236 30.9502 35.7215V67.6084C30.9502 68.2101 31.1892 68.7871 31.6147 69.2125C32.0401 69.638 32.6171 69.877 33.2188 69.877C33.8205 69.877 34.3975 69.638 34.823 69.2125C35.2484 68.7871 35.4874 68.2101 35.4874 67.6084V35.7215C35.4875 35.4236 35.4288 35.1285 35.3148 34.8533C35.2008 34.578 35.0337 34.3279 34.8231 34.1172C34.6124 33.9066 34.3623 33.7395 34.087 33.6255C33.8118 33.5115 33.5167 33.4528 33.2188 33.4529Z" fill="white"/>
<path d="M50.6116 33.4529C50.3136 33.4528 50.0186 33.5115 49.7434 33.6255C49.4681 33.7395 49.218 33.9066 49.0073 34.1172C48.7966 34.3279 48.6295 34.578 48.5155 34.8533C48.4016 35.1285 48.3429 35.4236 48.343 35.7215V67.6084C48.343 68.2101 48.582 68.7871 49.0074 69.2125C49.4329 69.638 50.0099 69.877 50.6116 69.877C51.2133 69.877 51.7903 69.638 52.2157 69.2125C52.6412 68.7871 52.8802 68.2101 52.8802 67.6084V35.7215C52.8802 35.4236 52.8216 35.1285 52.7076 34.8533C52.5936 34.578 52.4265 34.3279 52.2158 34.1172C52.0052 33.9066 51.7551 33.7395 51.4798 33.6255C51.2045 33.5115 50.9095 33.4528 50.6116 33.4529Z" fill="white"/>
<path d="M68.0043 33.4529C67.7063 33.4528 67.4113 33.5115 67.1361 33.6255C66.8608 33.7395 66.6107 33.9066 66.4 34.1172C66.1893 34.3279 66.0222 34.578 65.9082 34.8533C65.7943 35.1285 65.7356 35.4236 65.7357 35.7215V67.6084C65.7357 68.2101 65.9747 68.7871 66.4001 69.2125C66.8256 69.638 67.4026 69.877 68.0043 69.877C68.606 69.877 69.183 69.638 69.6084 69.2125C70.0339 68.7871 70.2729 68.2101 70.2729 67.6084V35.7215C70.2729 35.4236 70.2143 35.1285 70.1003 34.8533C69.9863 34.578 69.8192 34.3279 69.6085 34.1172C69.3979 33.9066 69.1478 33.7395 68.8725 33.6255C68.5972 33.5115 68.3022 33.4528 68.0043 33.4529Z" fill="white"/>
<path d="M59.3079 42.1493C59.01 42.1492 58.715 42.2079 58.4397 42.3219C58.1644 42.4359 57.9143 42.603 57.7037 42.8136C57.493 43.0243 57.3259 43.2744 57.2119 43.5497C57.0979 43.825 57.0393 44.12 57.0393 44.4179V58.9121C57.0393 59.5138 57.2783 60.0908 57.7038 60.5162C58.1292 60.9417 58.7062 61.1807 59.3079 61.1807C59.9096 61.1807 60.4866 60.9417 60.9121 60.5162C61.3375 60.0908 61.5765 59.5138 61.5765 58.9121V44.4179C61.5766 44.12 61.5179 43.825 61.4039 43.5497C61.29 43.2744 61.1229 43.0243 60.9122 42.8136C60.7015 42.603 60.4514 42.4359 60.1761 42.3219C59.9009 42.2079 59.6059 42.1492 59.3079 42.1493Z" fill="white"/>
<path d="M76.7006 42.1493C76.4027 42.1492 76.1077 42.2079 75.8324 42.3219C75.5571 42.4359 75.307 42.603 75.0964 42.8136C74.8857 43.0243 74.7186 43.2744 74.6046 43.5497C74.4906 43.825 74.432 44.12 74.432 44.4179V58.9121C74.432 59.5138 74.671 60.0908 75.0965 60.5162C75.5219 60.9417 76.099 61.1807 76.7006 61.1807C77.3023 61.1807 77.8793 60.9417 78.3048 60.5162C78.7302 60.0908 78.9692 59.5138 78.9692 58.9121V44.4179C78.9693 44.12 78.9106 43.825 78.7966 43.5497C78.6827 43.2744 78.5156 43.0243 78.3049 42.8136C78.0942 42.603 77.8441 42.4359 77.5688 42.3219C77.2936 42.2079 76.9986 42.1492 76.7006 42.1493Z" fill="white"/>
<path d="M24.5225 42.1493C24.2245 42.1492 23.9295 42.2079 23.6542 42.3219C23.379 42.4359 23.1289 42.603 22.9182 42.8136C22.7075 43.0243 22.5404 43.2744 22.4264 43.5497C22.3124 43.825 22.2538 44.12 22.2538 44.4179V58.9121C22.2538 59.21 22.3125 59.505 22.4265 59.7803C22.5405 60.0555 22.7076 60.3056 22.9183 60.5162C23.129 60.7269 23.3791 60.894 23.6543 61.008C23.9295 61.122 24.2245 61.1807 24.5225 61.1807C24.8204 61.1807 25.1154 61.122 25.3906 61.008C25.6659 60.894 25.916 60.7269 26.1266 60.5162C26.3373 60.3056 26.5044 60.0555 26.6184 59.7803C26.7324 59.505 26.7911 59.21 26.7911 58.9121V44.4179C26.7911 44.12 26.7325 43.825 26.6185 43.5497C26.5045 43.2744 26.3374 43.0243 26.1267 42.8136C25.9161 42.603 25.6659 42.4359 25.3907 42.3219C25.1154 42.2079 24.8204 42.1492 24.5225 42.1493Z" fill="white"/>
<defs>
<linearGradient id="paint0_linear" x1="16.0385" y1="13.2077" x2="89.8462" y2="85.85" gradientUnits="userSpaceOnUse">
<stop stop-color="#4A00E0"/>
<stop offset="0.658752" stop-color="#EC5EA0"/>
<stop offset="1" stop-color="#F3A43E"/>
</linearGradient>
</defs>
</svg>
