<svg width="29" height="28" viewBox="0 0 29 28" fill="none" xmlns="http://www.w3.org/2000/svg">
<path d="M13.5516 0.835349C13.8561 -0.0750465 15.1439 -0.0750445 15.4484 0.835351L18.2006 9.06391C18.337 9.47176 18.7189 9.74671 19.149 9.74671L27.9924 9.74671C28.9681 9.74671 29.3662 11.0011 28.569 11.5637L21.4649 16.5777C21.1042 16.8323 20.9531 17.2932 21.0932 17.7119L23.8184 25.8597C24.1249 26.7759 23.0827 27.551 22.2934 26.9939L15.0766 21.9004C14.7309 21.6564 14.2691 21.6564 13.9234 21.9004L6.70659 26.9939C5.91725 27.551 4.87514 26.7759 5.1816 25.8597L7.90683 17.7119C8.04687 17.2932 7.89579 16.8323 7.5351 16.5777L0.430957 11.5637C-0.366219 11.0011 0.0318601 9.74671 1.00759 9.74671L9.85103 9.74671C10.2811 9.74671 10.663 9.47176 10.7994 9.06391L13.5516 0.835349Z" fill="#FDCC0D"/>
</svg>
