<svg width="26" height="21" viewBox="0 0 26 21" fill="none" xmlns="http://www.w3.org/2000/svg">
<path d="M23.3275 5.23357C23.344 5.46325 23.344 5.69298 23.344 5.92265C23.344 12.9281 17.9823 21 8.18277 21C5.16371 21 2.35915 20.1304 0 18.6211C0.428951 18.6703 0.841347 18.6867 1.2868 18.6867C3.77789 18.6867 6.07107 17.85 7.9023 16.4227C5.55965 16.3734 3.59644 14.8477 2.92003 12.7477C3.25001 12.7968 3.57994 12.8297 3.92642 12.8297C4.40483 12.8297 4.8833 12.764 5.3287 12.6492C2.88708 12.157 1.0558 10.0242 1.0558 7.44843V7.38283C1.76516 7.77658 2.59011 8.02267 3.46441 8.05544C2.02913 7.10386 1.08881 5.47966 1.08881 3.64215C1.08881 2.65779 1.35272 1.75545 1.81468 0.967944C4.43779 4.18357 8.38072 6.28353 12.802 6.51326C12.7195 6.11951 12.67 5.70939 12.67 5.29923C12.67 2.37888 15.0457 0 17.9987 0C19.533 0 20.9188 0.639842 21.8921 1.67344C23.0964 1.44376 24.2512 1.00077 25.2741 0.393753C24.8781 1.62425 24.0368 2.65784 22.9315 3.31405C24.0038 3.19926 25.0432 2.90388 26 2.49377C25.2742 3.54373 24.3668 4.47884 23.3275 5.23357Z" fill="#20123A"/>
</svg>
